<svg width="1000" height="1000" viewBox="0 0 1000 1000" fill="none" xmlns="http://www.w3.org/2000/svg">
<circle cx="500" cy="500" r="500" fill="#334155"/>
<mask id="mask0_1633_3429" style="mask-type:alpha" maskUnits="userSpaceOnUse" x="0" y="0" width="1000" height="1000">
<circle cx="500" cy="500" r="500" fill="#020618"/>
</mask>
<g mask="url(#mask0_1633_3429)">
<path d="M534.373 36.001C525.281 40.7193 515.364 42.9859 504.934 43.962C496.426 45.7019 487.885 45.0918 479.311 42.1318C462.308 35.787 445.226 29.6862 428.064 23.8295C417.054 22.3189 406.479 23.7416 396.34 28.1C383.909 36.2311 373.946 46.8062 366.446 59.824C355.577 79.2366 347.239 99.5729 341.433 120.832C338.57 133.986 335.723 147 332.892 159.876C329.921 178.514 327.481 197.224 325.571 216.003C290.013 221.944 255.443 231.502 221.858 244.677C207.912 249.905 196.32 258.243 187.084 269.69C184.194 277.398 185.008 284.719 189.524 291.653C199.535 302.459 211.534 310.39 225.519 315.446C261.569 328.627 298.58 338.186 336.553 344.119C339.016 360.892 342.067 377.567 345.704 394.146C346.518 396.992 346.518 399.84 345.704 402.687C283.737 440.86 234.321 491.293 197.455 553.986C204.811 559.285 212.132 564.572 219.418 569.848C225.246 572.971 230.941 576.428 236.5 580.219C243.643 585.544 250.557 591.034 257.243 596.691C262.123 599.509 259.499 598.001 262.123 599.741C217.644 620.151 173.312 640.893 129.126 661.969C114.653 671.999 105.502 685.623 101.673 702.844C93.2452 760.615 84.7041 818.369 76.0496 876.106C75.0478 879.832 75.2504 883.493 76.6597 887.087C176.024 961.152 287.466 1005.48 410.982 1020.08H412.202C429.888 1021.12 447.378 1022.34 464.669 1023.74H481.751H520.796H526.897C610.482 1020.51 691.42 1003.84 769.708 973.718C817.274 952.992 862.42 928.182 905.145 899.289C910.662 894.984 916.153 890.51 921.617 885.867C914.024 827.285 905.889 768.718 897.214 710.165C894.398 688.863 884.026 672.39 866.1 660.749C822.434 640.747 778.915 620.411 735.543 599.741C756.62 583.739 778.175 568.487 800.211 553.986C762.883 491.602 713.263 441.373 651.353 403.297C650.08 400.401 650.486 397.757 652.573 395.366C655.229 378.007 658.076 360.722 661.114 343.509C701.017 338.109 739.654 327.941 777.029 313.006C788.99 308.148 799.361 301.031 808.142 291.653C812.533 284.676 813.346 277.355 810.583 269.69C802.572 259.674 792.607 252.15 780.689 247.117C745.165 232.949 708.561 222.578 670.875 216.003C669.756 193.423 666.908 171.053 662.334 148.895V146.455C659.135 135.287 656.288 123.899 653.793 112.291C646.727 89.2077 636.356 67.6525 622.679 47.6224C605.269 25.3254 580.662 19.6313 553.74 28.1C553.74 28.1 541.217 34.1952 534.373 36.001Z" fill="#030202"/>
<path fill-rule="evenodd" clip-rule="evenodd" d="M520.795 67.145C539.915 66.9412 559.031 67.145 578.142 67.755C580.16 68.4969 582.194 69.107 584.243 69.5853C588.717 73.2457 592.784 77.3125 596.445 81.7868C603.587 96.0967 608.672 111.145 611.697 126.932C614.67 140.216 616.907 153.638 618.407 167.197C618.237 169.064 617.423 170.284 615.967 170.858C542.835 163.705 469.625 162.892 396.339 168.418C395.119 168.418 393.899 168.418 392.679 168.418C393.294 160.241 394.311 152.107 395.729 144.015C410.204 135.558 422.405 124.576 432.334 111.07C438.212 103.005 440.653 94.0566 439.655 84.2271C437.72 81.5794 436.092 78.7315 434.774 75.686C426.52 66.8228 417.776 58.6893 408.541 51.283C412.784 47.8946 417.665 46.8782 423.183 48.2326C437.106 53.2804 450.935 58.5673 464.668 64.0946C483.086 70.0465 501.795 71.0629 520.795 67.145Z" fill="#DC3034"/>
<path fill-rule="evenodd" clip-rule="evenodd" d="M596.45 57.3848C592.831 61.8176 588.765 65.8844 584.249 69.5863C582.2 69.108 580.166 68.4979 578.148 67.7561C559.037 67.146 539.921 66.9422 520.801 67.146C538.065 61.7261 555.147 55.4216 572.047 48.2336C581.915 46.8707 590.048 49.9211 596.45 57.3848Z" fill="#E57073"/>
<path fill-rule="evenodd" clip-rule="evenodd" d="M596.447 57.3828C600.572 60.2868 603.825 63.9472 606.208 68.3642C604.945 70.4445 604.945 72.4785 606.208 74.4649C603.901 78.4292 600.646 80.8695 596.447 81.7859C592.786 77.3116 588.719 73.2448 584.245 69.5843C588.761 65.8824 592.828 61.8156 596.447 57.3828Z" fill="#E76869"/>
<path fill-rule="evenodd" clip-rule="evenodd" d="M408.544 51.2832C417.78 58.6895 426.523 66.8231 434.778 75.6862C436.095 78.7317 437.723 81.5796 439.658 84.2273C440.656 94.0569 438.216 103.005 432.337 111.071C422.409 124.577 410.207 135.558 395.733 144.015C394.315 152.107 393.297 160.242 392.682 168.418C393.903 168.418 395.123 168.418 396.343 168.418C383.569 170.625 370.554 172.252 357.298 173.298C361.38 134.982 372.972 99.19 392.072 65.925C396.509 59.7596 401.999 54.879 408.544 51.2832Z" fill="#AA2426"/>
<path fill-rule="evenodd" clip-rule="evenodd" d="M606.209 68.3652C619.906 90.5122 629.465 114.509 634.882 140.354C637.105 150.452 638.936 160.621 640.373 170.858C639.967 172.078 639.559 173.298 639.153 174.518C631.283 173.212 623.554 171.992 615.97 170.858C617.425 170.285 618.239 169.064 618.41 167.198C616.909 153.638 614.673 140.216 611.699 126.933C608.674 111.145 603.59 96.0969 596.447 81.7869C600.647 80.8706 603.901 78.4303 606.209 74.466C604.946 72.4796 604.946 70.4456 606.209 68.3652Z" fill="#E66E70"/>
<path fill-rule="evenodd" clip-rule="evenodd" d="M556.182 96.4297C562.034 110.237 570.981 121.828 583.025 131.204C588.923 135.172 595.024 138.832 601.327 142.185C577.965 135.294 562.917 120.042 556.182 96.4297Z" fill="#E8726F"/>
<path fill-rule="evenodd" clip-rule="evenodd" d="M554.96 228.205C564.456 231.313 573.809 235.177 583.024 239.797C587.81 243.763 591.673 248.44 594.616 253.828C595.526 257.841 594.103 260.892 590.345 262.979C582.463 267.143 574.328 270.193 565.942 272.131C491.078 273.884 416.242 273.07 341.433 269.69C333.518 268.68 325.383 268.07 317.03 267.86C337.138 259.634 357.067 251.093 376.818 242.237C389.456 237.55 402.065 233.28 414.643 229.425C461.39 226.707 508.163 226.299 554.96 228.205Z" fill="#DA2F33"/>
<path d="M650.746 403.907L652.576 395.366L648.915 394.756L645.255 402.077L650.746 403.907Z" fill="black"/>
<path fill-rule="evenodd" clip-rule="evenodd" d="M554.961 228.205C607.271 230.551 658.925 237.67 709.921 249.558C730.242 254.841 750.172 261.348 769.708 269.08C701.781 268.526 633.859 269.543 565.942 272.131C574.328 270.193 582.463 267.143 590.345 262.979C594.104 260.892 595.526 257.841 594.616 253.828C591.673 248.44 587.81 243.763 583.025 239.797C573.81 235.177 564.456 231.313 554.961 228.205Z" fill="#E97373"/>
<path fill-rule="evenodd" clip-rule="evenodd" d="M414.646 229.426C402.069 233.28 389.46 237.551 376.821 242.237C357.071 251.093 337.142 259.634 317.034 267.861C325.387 268.07 333.522 268.681 341.437 269.691C303.996 268.445 266.579 268.241 229.183 269.081C269.17 252.778 310.655 241.797 353.638 236.137C373.894 233.096 394.229 230.859 414.646 229.426Z" fill="#A72224"/>
<path fill-rule="evenodd" clip-rule="evenodd" d="M376.819 295.314C370.718 295.314 364.617 295.314 358.517 295.314C358.517 299.788 358.517 304.261 358.517 308.735C357.317 304.101 356.91 299.22 357.297 294.093C364.039 293.702 370.547 294.108 376.819 295.314Z" fill="black"/>
<path fill-rule="evenodd" clip-rule="evenodd" d="M376.821 295.312C460.195 298.442 543.573 298.442 626.953 295.312C631.019 295.312 635.087 295.312 639.154 295.312C639.154 298.973 639.154 302.633 639.154 306.294C638.827 315.058 638.013 323.599 636.714 331.917C636.567 330.592 635.754 329.778 634.274 329.477C621.461 330.367 608.853 331.588 596.449 333.137C593.602 333.137 590.754 333.137 587.908 333.137C520.398 336.313 452.882 336.313 385.362 333.137C389.231 392.155 406.109 447.062 435.998 497.858C445.899 511.419 457.083 523.823 469.553 535.072C474.864 539.41 480.557 542.867 486.635 545.444C468.451 542.046 452.589 534.115 439.049 521.651C416.404 498.578 399.118 471.937 387.192 441.731C370.831 398.886 361.274 354.555 358.519 308.734C358.519 304.26 358.519 299.787 358.519 295.312C364.619 295.312 370.72 295.312 376.821 295.312Z" fill="black"/>
<path fill-rule="evenodd" clip-rule="evenodd" d="M626.95 295.313C631.174 294.115 635.649 293.709 640.372 294.093C640.754 298.415 640.346 302.482 639.152 306.295C639.152 302.634 639.152 298.974 639.152 295.313C635.085 295.313 631.017 295.313 626.95 295.313Z" fill="black"/>
<path fill-rule="evenodd" clip-rule="evenodd" d="M587.906 333.139C590.753 333.139 593.601 333.139 596.447 333.139C602.142 333.139 607.835 333.139 613.529 333.139C609.416 389.039 593.758 441.505 566.553 490.538C557.372 505.453 546.594 519.079 534.219 531.413C535.493 532.846 536.713 534.27 537.88 535.684C534.08 537.991 530.012 539.618 525.678 540.565C525.016 540.491 524.609 540.085 524.458 539.344C543.83 509.547 557.862 477.417 566.553 442.952C576.559 407.414 582.049 371.217 583.025 334.359C584.976 334.686 586.603 334.278 587.906 333.139Z" fill="black"/>
<path fill-rule="evenodd" clip-rule="evenodd" d="M587.905 333.139C586.602 334.278 584.975 334.686 583.024 334.359C582.048 371.217 576.558 407.414 566.552 442.952C557.861 477.417 543.829 509.547 524.457 539.344C524.608 540.085 525.015 540.491 525.677 540.565C521.599 542.804 517.125 544.227 512.255 544.835C503.724 545.445 495.183 545.648 486.632 545.445C480.555 542.868 474.861 539.411 469.55 535.074C457.08 523.824 445.896 511.42 435.996 497.859C406.107 447.063 389.228 392.156 385.359 333.139C452.879 336.315 520.395 336.315 587.905 333.139Z" fill="black"/>
<path fill-rule="evenodd" clip-rule="evenodd" d="M636.712 331.917C631.934 387.362 615.462 439.016 587.295 486.876C579.166 498.846 570.014 510.03 559.842 520.43C553.004 526.259 545.683 531.342 537.879 535.682C536.713 534.268 535.493 532.844 534.219 531.412C546.594 519.077 557.371 505.452 566.553 490.537C593.757 441.504 609.416 389.037 613.529 333.137C607.834 333.137 602.141 333.137 596.447 333.137C608.851 331.587 621.459 330.367 634.271 329.477C635.752 329.778 636.565 330.592 636.712 331.917Z" fill="black"/>
<path fill-rule="evenodd" clip-rule="evenodd" d="M370.719 614.993C369.194 614.899 368.177 614.085 367.668 612.553C351.848 567.546 329.885 526.061 301.78 488.097C301.191 486.941 300.988 485.721 301.17 484.437C303.941 475.72 307.194 467.179 310.931 458.814C324.499 446.89 339.141 436.317 354.857 427.09C361.582 447.864 370.326 467.794 381.09 486.877C381.904 488.504 381.904 490.131 381.09 491.758C366.257 518.373 360.562 546.844 364.008 577.169C365.666 589.895 367.903 602.504 370.719 614.993Z" fill="#AB2426"/>
<path fill-rule="evenodd" clip-rule="evenodd" d="M686.739 458.814C686.077 458.887 685.67 459.293 685.519 460.034C689.659 467.993 693.319 476.128 696.5 484.437C666.353 528.056 642.356 574.83 624.511 624.755C632.071 598.032 635.122 570.781 633.662 543.004C630.85 523.783 624.545 505.888 614.75 489.318C626.227 469.526 635.582 448.783 642.814 427.09C658.529 436.317 673.171 446.89 686.739 458.814Z" fill="#A72326"/>
<path fill-rule="evenodd" clip-rule="evenodd" d="M310.93 458.814C307.193 467.18 303.94 475.721 301.169 484.438C283.524 502.492 267.662 522.015 253.583 543.005C278.359 559.431 301.95 577.529 324.352 597.302C345.845 616.346 361.503 639.325 371.328 666.24C375.91 682.41 372.452 696.442 360.957 708.336C345.291 721.361 329.835 734.58 314.591 747.991C347.027 789.582 377.327 832.695 405.492 877.327C419.251 901.981 429.216 928.011 435.386 955.416C392.886 881.197 344.487 811.038 290.188 744.94C316.018 724.188 341.642 703.243 367.057 682.102C357.284 663.357 345.692 645.867 332.283 629.636C318.175 614.712 303.33 600.68 287.747 587.541C269.18 573.641 250.472 560.015 231.62 546.665C253.744 513.557 280.181 484.273 310.93 458.814Z" fill="#E97273"/>
<path fill-rule="evenodd" clip-rule="evenodd" d="M686.739 458.814C717.488 484.273 743.925 513.557 766.049 546.665C742.041 562.748 718.858 580.033 696.5 598.522C683.202 609.989 671 622.394 659.895 635.737C657.894 634.736 655.86 633.72 653.795 632.686C655.272 631.328 655.272 629.904 653.795 628.416C651.481 627.237 649.041 626.831 646.474 627.195C674.078 594.503 706.006 566.847 742.256 544.225C743.07 543.005 743.07 541.785 742.256 540.565C727.857 521.098 712.605 502.389 696.5 484.438C693.319 476.128 689.659 467.994 685.519 460.035C685.67 459.294 686.076 458.888 686.739 458.814Z" fill="#E97174"/>
<path fill-rule="evenodd" clip-rule="evenodd" d="M755.068 636.956C749.374 641.43 743.681 645.903 737.986 650.378C723.485 661.005 709.859 672.8 697.111 685.762C695.537 688.559 693.503 690.999 691.01 693.083C691.652 695.19 691.448 697.224 690.4 699.184C680.916 692.346 671.967 684.823 663.557 676.611C676.428 653.766 693.104 634.04 713.583 617.434C727.817 623.333 741.645 629.841 755.068 636.956Z" fill="#AB2427"/>
<path fill-rule="evenodd" clip-rule="evenodd" d="M646.474 627.194C649.041 626.829 651.482 627.235 653.795 628.414C655.273 629.903 655.273 631.327 653.795 632.685C655.861 633.718 657.895 634.734 659.896 635.735C657.152 640.925 653.899 645.806 650.135 650.377C648.059 649.808 646.229 649.808 644.644 650.377C642.206 647.478 639.562 645.037 636.713 643.056C639.035 637.191 642.289 631.904 646.474 627.194Z" fill="#EA7B7B"/>
<path fill-rule="evenodd" clip-rule="evenodd" d="M306.052 699.184C306.298 696.147 305.688 693.299 304.221 690.643C290.628 675.615 275.782 662.194 259.686 650.378C253.991 645.903 248.298 641.43 242.604 636.956C256.202 630.239 270.031 623.732 284.089 617.434C304.568 634.04 321.244 653.766 334.115 676.611C325.669 685.259 316.314 692.784 306.052 699.184Z" fill="#AC2428"/>
<path fill-rule="evenodd" clip-rule="evenodd" d="M737.983 650.377C771.382 666.466 804.733 682.938 838.035 699.793C840.609 701.185 842.845 703.016 844.746 705.284C847.863 713.131 849.895 721.265 850.847 729.687C858.899 782.881 866.424 836.16 873.42 889.527C852.057 904.328 829.688 917.75 806.311 929.792C801.891 879.332 797.214 828.9 792.28 778.493C783.32 834.905 774.983 891.44 767.266 948.094C735.778 960.285 703.648 970.656 670.874 979.208C646.722 984.928 622.319 989.199 597.665 992.02C596.596 992.179 595.782 991.773 595.225 990.799C638.267 915.282 688.497 844.919 745.914 779.713C746.728 778.899 746.728 778.087 745.914 777.273C739.371 771.743 733.068 766.049 727.001 760.191C730.604 755.158 734.467 750.277 738.593 745.549C740.166 743.651 740.979 741.619 741.033 739.448C723.736 726.442 706.858 713.021 690.397 699.183C691.445 697.223 691.649 695.189 691.007 693.082C693.5 690.998 695.534 688.558 697.108 685.761C709.856 672.8 723.481 661.004 737.983 650.377Z" fill="#DE3133"/>
<path fill-rule="evenodd" clip-rule="evenodd" d="M242.6 636.957C248.295 641.431 253.988 645.904 259.682 650.379C224.543 667.339 189.565 684.623 154.749 702.235C153.652 704.251 152.432 706.081 151.089 707.726C150.055 704.866 148.021 703.036 144.988 702.235C145.394 701.829 145.802 701.421 146.208 701.015C143.184 696.704 139.524 693.246 135.227 690.644C138.343 686.106 142.41 682.649 147.428 680.272C179.034 665.485 210.758 651.047 242.6 636.957Z" fill="#EC7475"/>
<path fill-rule="evenodd" clip-rule="evenodd" d="M259.684 650.377C275.781 662.193 290.626 675.615 304.22 690.642C305.687 693.298 306.297 696.146 306.05 699.183C289.809 712.771 273.337 726.192 256.634 739.448C256.25 741.166 256.656 742.793 257.854 744.329C261.979 749.057 265.842 753.937 269.446 758.971C269.605 759.872 269.402 760.686 268.835 761.411C263.374 766.982 257.68 772.269 251.753 777.273C250.939 778.087 250.939 778.899 251.753 779.713C308.584 845.391 358.815 915.754 402.442 990.799C400.129 991.978 397.689 992.384 395.121 992.02C338.537 984.788 284.036 969.942 231.621 947.484C231.011 946.874 230.401 946.264 229.79 945.654C223.884 900.446 217.58 855.3 210.878 810.217C209.555 799.528 207.725 788.953 205.387 778.493C203.829 793.945 202.405 809.401 201.117 824.859C197.837 857.749 194.787 890.693 191.966 923.691C191.698 925.446 191.088 927.072 190.135 928.572C166.888 917.368 144.925 904.354 124.247 889.527C131.603 828.674 140.552 768.073 151.09 707.724C152.434 706.079 153.654 704.249 154.751 702.233C189.567 684.622 224.545 667.337 259.684 650.377Z" fill="#DE3134"/>
<path fill-rule="evenodd" clip-rule="evenodd" d="M301.171 484.438C300.989 485.721 301.192 486.941 301.781 488.098C329.886 526.062 351.849 567.547 367.669 612.553C368.178 614.086 369.195 614.9 370.72 614.994C385.094 664.019 400.346 712.826 416.476 761.412C438.397 829.734 451.615 899.691 456.131 971.278C456.525 979.236 456.118 986.963 454.911 994.461C447.763 981.792 441.255 968.777 435.388 955.416C429.218 928.01 419.253 901.981 405.494 877.326C377.329 832.695 347.029 789.582 314.593 747.99C329.837 734.58 345.293 721.361 360.959 708.335C372.454 696.441 375.912 682.41 371.33 666.24C361.505 639.325 345.847 616.346 324.354 597.302C301.952 577.529 278.361 559.43 253.585 543.005C267.664 522.015 283.526 502.492 301.171 484.438Z" fill="#DD3034"/>
<path fill-rule="evenodd" clip-rule="evenodd" d="M696.501 484.438C712.606 502.388 727.858 521.098 742.257 540.565C743.071 541.785 743.071 543.005 742.257 544.225C706.008 566.847 674.08 594.503 646.475 627.195C642.29 631.905 639.036 637.192 636.714 643.057C625.078 659.498 622.028 677.394 627.563 696.744C631.734 703.361 636.818 709.258 642.815 714.436C656.445 725.427 669.867 736.612 683.08 747.99C650.381 788.98 620.081 831.686 592.178 876.106C578.454 900.707 568.489 926.737 562.284 954.196C555.804 968.783 548.687 983.017 540.932 996.901C542.424 922.059 554.219 848.849 576.316 777.274C592.553 726.334 608.619 675.494 624.512 624.755C642.357 574.83 666.354 528.057 696.501 484.438Z" fill="#DD3034"/>
<path fill-rule="evenodd" clip-rule="evenodd" d="M636.712 643.057C639.561 645.038 642.205 647.478 644.643 650.378C646.228 649.809 648.058 649.809 650.133 650.378C644.35 659.087 638.859 668.036 633.661 677.221C632.074 679.496 631.666 681.937 632.441 684.542C657.476 704.302 682.082 724.435 706.261 744.939C667.111 794.966 629.896 846.416 594.616 899.289C583.806 917.668 573.028 935.97 562.282 954.195C568.487 926.736 578.452 900.706 592.176 876.106C620.079 831.685 650.379 788.98 683.078 747.99C669.865 736.612 656.443 725.427 642.812 714.436C636.815 709.257 631.732 703.36 627.561 696.743C622.026 677.393 625.076 659.497 636.712 643.057Z" fill="#EA7274"/>
<path fill-rule="evenodd" clip-rule="evenodd" d="M135.228 690.643C139.525 693.245 143.186 696.703 146.209 701.014C145.803 701.42 145.395 701.828 144.989 702.234C148.022 703.034 150.056 704.865 151.09 707.725C140.551 768.073 131.603 828.675 124.246 889.527C116.648 885.392 109.53 880.512 102.894 874.886C109.325 818.155 117.46 761.621 127.297 705.284C129.027 699.782 131.671 694.901 135.228 690.643Z" fill="#EA7678"/>
<path fill-rule="evenodd" clip-rule="evenodd" d="M210.876 810.218C209.939 809.287 209.329 808.067 209.046 806.558C208.232 808.184 207.42 808.184 206.606 806.558C205.812 808.675 206.014 810.709 207.216 812.658C205.969 813.7 204.953 814.921 204.166 816.319C203.759 815.913 203.352 815.505 202.945 815.099C202.722 818.594 202.112 821.847 201.115 824.86C202.404 809.402 203.828 793.946 205.386 778.494C207.724 788.955 209.554 799.53 210.876 810.218Z" fill="#1F0D08"/>
<path fill-rule="evenodd" clip-rule="evenodd" d="M755.068 636.957C789.092 651.934 822.85 667.593 856.34 683.933C866.708 692.636 872.199 703.82 872.812 717.487C880.736 768.675 888.261 819.921 895.385 871.226C895.3 872.778 894.894 874.201 894.165 875.497C887.216 880.186 880.302 884.864 873.423 889.529C866.426 836.162 858.902 782.882 850.85 729.689C849.898 721.267 847.865 713.132 844.749 705.286C842.848 703.017 840.611 701.187 838.038 699.795C804.735 682.94 771.385 666.468 737.985 650.379C743.68 645.904 749.373 641.431 755.068 636.957Z" fill="#EB7376"/>
<path fill-rule="evenodd" clip-rule="evenodd" d="M269.446 758.971C322.108 822.358 369.084 889.874 410.374 961.516C416.508 972.157 421.998 983.138 426.846 994.46C416.003 995.577 405.428 994.763 395.122 992.02C397.689 992.385 400.13 991.978 402.443 990.8C358.815 915.754 308.585 845.392 251.754 779.713C250.94 778.899 250.94 778.087 251.754 777.273C257.68 772.269 263.375 766.982 268.836 761.411C269.402 760.686 269.606 759.872 269.446 758.971Z" fill="#AD2528"/>
<path fill-rule="evenodd" clip-rule="evenodd" d="M727.002 760.191C733.069 766.049 739.372 771.744 745.915 777.274C746.728 778.087 746.728 778.9 745.915 779.714C688.498 844.92 638.268 915.283 595.225 990.8C595.783 991.774 596.597 992.18 597.666 992.02C588.887 993.233 579.938 994.453 570.822 995.681C575.217 984.447 580.302 973.465 586.074 962.737C627.364 891.094 674.34 823.578 727.002 760.191Z" fill="#AC2426"/>
<path opacity="0.044" fill-rule="evenodd" clip-rule="evenodd" d="M905.148 899.289C904.231 901.241 903.01 903.072 901.488 904.78C862.51 930.365 821.837 952.734 779.472 971.888C776.345 973.205 773.092 973.815 769.711 973.718C817.277 952.993 862.423 928.182 905.148 899.289Z" fill="#EBEBEA"/>
<path fill-rule="evenodd" clip-rule="evenodd" d="M456.128 971.277C457.538 979.6 457.74 988.141 456.738 996.901C455.864 996.237 455.254 995.423 454.908 994.46C456.116 986.962 456.522 979.235 456.128 971.277Z" fill="#6F1D1E"/>
<path opacity="0.065" fill-rule="evenodd" clip-rule="evenodd" d="M769.71 973.719C769.747 974.935 769.137 975.749 767.88 976.159C690.869 1006.73 610.541 1022.6 526.899 1023.74C610.485 1020.51 691.423 1003.84 769.71 973.719Z" fill="#E0DFDF"/>
</g>
</svg>
