<svg width="500" height="500" viewBox="0 0 500 500" fill="none" xmlns="http://www.w3.org/2000/svg">
<mask id="mask0_1633_3788" style="mask-type:alpha" maskUnits="userSpaceOnUse" x="0" y="0" width="500" height="500">
<circle cx="250" cy="250" r="250" fill="#020618"/>
</mask>
<g mask="url(#mask0_1633_3788)">
<path d="M267.187 18.0005C262.641 20.3597 257.682 21.4929 252.467 21.981C248.213 22.851 243.943 22.5459 239.656 21.0659C231.154 17.8935 222.613 14.8431 214.033 11.9147C208.527 11.1595 203.24 11.8708 198.171 14.05C191.955 18.1156 186.973 23.4031 183.224 29.912C177.789 39.6183 173.62 49.7864 170.717 60.4158C169.285 66.993 167.862 73.5001 166.447 79.9382C164.961 89.2571 163.741 98.612 162.786 108.002C145.007 110.972 127.722 115.751 110.93 122.339C103.956 124.953 98.1606 129.121 93.5423 134.845C92.0977 138.699 92.5046 142.359 94.7625 145.826C99.7682 151.229 105.768 155.195 112.76 157.723C130.785 164.314 149.291 169.093 168.277 172.06C169.509 180.446 171.034 188.784 172.852 197.073C173.259 198.496 173.259 199.92 172.852 201.343C141.869 220.43 117.161 245.647 98.728 276.993C102.406 279.642 106.067 282.286 109.709 284.924C112.624 286.486 115.471 288.214 118.25 290.109C121.822 292.772 125.279 295.517 128.622 298.345C131.062 299.754 129.75 299 131.062 299.871C108.822 310.075 86.6564 320.447 64.5636 330.985C57.3269 335.999 52.7513 342.811 50.8369 351.422C46.6231 380.307 42.3526 409.185 38.0253 438.053C37.5244 439.916 37.6257 441.746 38.3303 443.544C88.0126 480.576 143.733 502.742 205.492 510.042H206.102C214.945 510.56 223.69 511.17 232.335 511.872H240.876H260.399H263.449C305.242 510.256 345.71 501.918 384.854 486.859C408.638 476.496 431.21 464.091 452.573 449.644C455.332 447.492 458.077 445.255 460.809 442.934C457.012 413.643 452.945 384.359 448.607 355.083C447.199 344.431 442.014 336.195 433.05 330.374C411.218 320.374 389.458 310.205 367.772 299.871C378.311 291.87 389.088 284.244 400.106 276.993C381.442 245.801 356.632 220.686 325.677 201.648C325.04 200.201 325.244 198.879 326.287 197.683C327.615 189.003 329.038 180.361 330.557 171.755C350.509 169.054 369.827 163.971 388.515 156.503C394.495 154.074 399.681 150.515 404.072 145.826C406.267 142.338 406.674 138.678 405.292 134.845C401.287 129.837 396.304 126.075 390.345 123.559C372.583 116.474 354.281 111.289 335.438 108.002C334.879 96.7117 333.455 85.5265 331.167 74.4475V73.2274C329.568 67.6434 328.145 61.9495 326.897 56.1453C323.364 44.6038 318.178 33.8262 311.34 23.8112C302.635 12.6627 290.331 9.81565 276.871 14.05C276.871 14.05 270.609 17.0976 267.187 18.0005Z" fill="#030202"/>
<path fill-rule="evenodd" clip-rule="evenodd" d="M260.398 33.5725C269.958 33.4706 279.516 33.5725 289.072 33.8775C290.081 34.2484 291.098 34.5535 292.122 34.7926C294.359 36.6229 296.393 38.6562 298.223 40.8934C301.794 48.0484 304.336 55.5724 305.849 63.4662C307.336 70.1081 308.454 76.819 309.204 83.5987C309.119 84.5321 308.712 85.1422 307.984 85.429C271.418 81.8527 234.813 81.4458 198.17 84.2088C197.56 84.2088 196.95 84.2088 196.34 84.2088C196.647 80.1207 197.156 76.0533 197.865 72.0073C205.102 67.7788 211.203 62.2882 216.167 55.5352C219.107 51.5026 220.327 47.0283 219.828 42.1136C218.86 40.7897 218.046 39.3658 217.388 37.843C213.26 33.4114 208.889 29.3447 204.271 25.6415C206.393 23.9473 208.833 23.4391 211.592 24.1163C218.553 26.6402 225.468 29.2836 232.334 32.0473C241.544 35.0232 250.898 35.5314 260.398 33.5725Z" fill="#DC3034"/>
<path fill-rule="evenodd" clip-rule="evenodd" d="M298.225 28.6924C296.416 30.9088 294.382 32.9422 292.124 34.7932C291.1 34.554 290.083 34.249 289.074 33.878C279.518 33.573 269.96 33.4711 260.4 33.573C269.032 30.863 277.573 27.7108 286.024 24.1168C290.957 23.4354 295.024 24.9606 298.225 28.6924Z" fill="#E57073"/>
<path fill-rule="evenodd" clip-rule="evenodd" d="M298.223 28.6914C300.286 30.1434 301.912 31.9736 303.104 34.1821C302.473 35.2223 302.473 36.2393 303.104 37.2325C301.95 39.2146 300.323 40.4348 298.223 40.8929C296.393 38.6558 294.36 36.6224 292.123 34.7922C294.38 32.9412 296.414 30.9078 298.223 28.6914Z" fill="#E76869"/>
<path fill-rule="evenodd" clip-rule="evenodd" d="M204.272 25.6406C208.889 29.3438 213.261 33.4106 217.388 37.8421C218.047 39.3649 218.861 40.7888 219.829 42.1127C220.328 47.0275 219.108 51.5018 216.168 55.5344C211.204 62.2873 205.103 67.778 197.866 72.0064C197.157 76.0524 196.648 80.1198 196.341 84.2079C196.951 84.2079 197.561 84.2079 198.171 84.2079C191.784 85.3116 185.276 86.1248 178.648 86.6482C180.69 67.49 186.485 49.594 196.036 32.9615C198.254 29.8788 200.999 27.4385 204.272 25.6406Z" fill="#AA2426"/>
<path fill-rule="evenodd" clip-rule="evenodd" d="M303.104 34.1836C309.953 45.2571 314.732 57.2555 317.441 70.1781C318.553 75.2271 319.468 80.3114 320.186 85.43C319.983 86.0401 319.78 86.6501 319.576 87.2602C315.641 86.6068 311.777 85.9967 307.985 85.43C308.713 85.1433 309.12 84.5332 309.205 83.5998C308.455 76.82 307.336 70.1091 305.85 63.4672C304.337 55.5735 301.795 48.0494 298.224 40.8944C300.324 40.4363 301.951 39.2161 303.104 37.234C302.473 36.2408 302.473 35.2238 303.104 34.1836Z" fill="#E66E70"/>
<path fill-rule="evenodd" clip-rule="evenodd" d="M278.091 48.2148C281.017 55.1185 285.49 60.9142 291.513 65.602C294.462 67.586 297.512 69.4162 300.664 71.0927C288.983 67.647 281.458 60.021 278.091 48.2148Z" fill="#E8726F"/>
<path fill-rule="evenodd" clip-rule="evenodd" d="M277.481 114.103C282.228 115.656 286.905 117.589 291.513 119.898C293.905 121.882 295.837 124.22 297.308 126.914C297.763 128.921 297.052 130.446 295.173 131.49C291.232 133.571 287.164 135.096 282.971 136.065C245.54 136.942 208.122 136.535 170.717 134.845C166.76 134.34 162.692 134.035 158.516 133.93C168.57 129.817 178.534 125.546 188.409 121.118C194.729 118.775 201.033 116.64 207.322 114.713C230.696 113.353 254.082 113.15 277.481 114.103Z" fill="#DA2F33"/>
<path d="M325.373 201.954L326.288 197.684L324.458 197.379L322.627 201.039L325.373 201.954Z" fill="black"/>
<path fill-rule="evenodd" clip-rule="evenodd" d="M277.48 114.102C303.636 115.275 329.463 118.834 354.96 124.778C365.121 127.42 375.086 130.673 384.854 134.539C350.89 134.262 316.929 134.77 282.971 136.064C287.164 135.096 291.232 133.57 295.173 131.489C297.052 130.445 297.763 128.92 297.308 126.913C295.836 124.219 293.905 121.881 291.512 119.897C286.905 117.588 282.228 115.655 277.48 114.102Z" fill="#E97373"/>
<path fill-rule="evenodd" clip-rule="evenodd" d="M207.324 114.713C201.035 116.64 194.73 118.775 188.411 121.119C178.536 125.547 168.571 129.817 158.517 133.93C162.694 134.035 166.761 134.34 170.719 134.845C151.999 134.223 133.29 134.121 114.592 134.54C134.585 126.389 155.328 120.898 176.82 118.068C186.948 116.548 197.115 115.43 207.324 114.713Z" fill="#A72224"/>
<path fill-rule="evenodd" clip-rule="evenodd" d="M188.41 147.657C185.36 147.657 182.309 147.657 179.259 147.657C179.259 149.894 179.259 152.13 179.259 154.368C178.659 152.051 178.455 149.61 178.649 147.047C182.02 146.851 185.274 147.054 188.41 147.657Z" fill="black"/>
<path fill-rule="evenodd" clip-rule="evenodd" d="M188.411 147.656C230.098 149.221 271.787 149.221 313.477 147.656C315.51 147.656 317.544 147.656 319.578 147.656C319.578 149.486 319.578 151.317 319.578 153.147C319.414 157.529 319.007 161.8 318.357 165.959C318.284 165.296 317.877 164.889 317.137 164.738C310.731 165.184 304.427 165.794 298.225 166.569C296.802 166.569 295.378 166.569 293.954 166.569C260.199 168.157 226.441 168.157 192.681 166.569C194.616 196.077 203.055 223.531 218 248.929C222.95 255.709 228.542 261.911 234.777 267.536C237.432 269.705 240.279 271.433 243.318 272.722C234.226 271.023 226.295 267.057 219.525 260.825C208.202 249.289 199.559 235.968 193.597 220.865C185.416 199.443 180.637 177.277 179.26 154.367C179.26 152.13 179.26 149.893 179.26 147.656C182.31 147.656 185.361 147.656 188.411 147.656Z" fill="black"/>
<path fill-rule="evenodd" clip-rule="evenodd" d="M313.475 147.657C315.587 147.058 317.824 146.854 320.186 147.047C320.377 149.208 320.173 151.241 319.576 153.147C319.576 151.317 319.576 149.487 319.576 147.657C317.542 147.657 315.508 147.657 313.475 147.657Z" fill="black"/>
<path fill-rule="evenodd" clip-rule="evenodd" d="M293.953 166.57C295.376 166.57 296.8 166.57 298.224 166.57C301.071 166.57 303.917 166.57 306.765 166.57C304.708 194.52 296.879 220.754 283.277 245.27C278.686 252.728 273.297 259.54 267.11 265.708C267.747 266.424 268.357 267.136 268.94 267.843C267.04 268.997 265.006 269.81 262.839 270.283C262.508 270.247 262.305 270.043 262.229 269.673C271.915 254.775 278.931 238.709 283.277 221.477C288.279 203.708 291.025 185.61 291.513 167.18C292.488 167.344 293.301 167.14 293.953 166.57Z" fill="black"/>
<path fill-rule="evenodd" clip-rule="evenodd" d="M293.953 166.57C293.301 167.14 292.488 167.344 291.512 167.18C291.024 185.61 288.279 203.708 283.276 221.477C278.931 238.709 271.915 254.775 262.229 269.673C262.304 270.043 262.507 270.247 262.839 270.283C260.8 271.403 258.563 272.115 256.128 272.419C251.862 272.724 247.592 272.825 243.316 272.724C240.277 271.435 237.431 269.707 234.775 267.538C228.54 261.913 222.948 255.711 217.998 248.931C203.053 223.533 194.614 196.079 192.68 166.57C226.44 168.158 260.198 168.158 293.953 166.57Z" fill="black"/>
<path fill-rule="evenodd" clip-rule="evenodd" d="M318.356 165.958C315.967 193.681 307.731 219.508 293.648 243.438C289.583 249.423 285.007 255.015 279.921 260.215C276.502 263.13 272.842 265.671 268.94 267.841C268.356 267.134 267.746 266.422 267.109 265.706C273.297 259.539 278.686 252.726 283.276 245.268C296.879 220.752 304.708 194.519 306.764 166.569C303.917 166.569 301.071 166.569 298.223 166.569C304.425 165.794 310.729 165.184 317.136 164.738C317.876 164.889 318.283 165.296 318.356 165.958Z" fill="black"/>
<path fill-rule="evenodd" clip-rule="evenodd" d="M185.359 307.497C184.597 307.45 184.089 307.043 183.834 306.276C175.924 283.773 164.943 263.031 150.89 244.049C150.595 243.47 150.494 242.86 150.585 242.218C151.97 237.86 153.597 233.59 155.466 229.407C162.25 223.445 169.571 218.158 177.428 213.545C180.791 223.932 185.163 233.897 190.545 243.439C190.952 244.252 190.952 245.066 190.545 245.879C183.128 259.187 180.281 273.422 182.004 288.584C182.833 294.947 183.951 301.252 185.359 307.497Z" fill="#AB2426"/>
<path fill-rule="evenodd" clip-rule="evenodd" d="M343.37 229.407C343.038 229.444 342.835 229.647 342.759 230.017C344.829 233.997 346.66 238.064 348.25 242.218C333.176 264.028 321.178 287.415 312.256 312.377C316.036 299.016 317.561 285.391 316.831 271.502C315.425 261.892 312.273 252.944 307.375 244.659C313.113 234.763 317.791 224.391 321.407 213.545C329.265 218.158 336.586 223.445 343.37 229.407Z" fill="#A72326"/>
<path fill-rule="evenodd" clip-rule="evenodd" d="M155.466 229.406C153.597 233.589 151.97 237.859 150.585 242.218C141.763 251.245 133.832 261.006 126.792 271.501C139.18 279.714 150.975 288.764 162.176 298.65C172.923 308.172 180.752 319.662 185.664 333.119C187.955 341.204 186.226 348.22 180.479 354.167C172.646 360.679 164.918 367.289 157.296 373.994C173.514 394.79 188.664 416.346 202.747 438.662C209.626 450.99 214.608 464.004 217.693 477.707C196.443 440.598 172.244 405.518 145.094 372.469C158.01 362.093 170.821 351.62 183.529 341.05C178.642 331.678 172.847 322.933 166.142 314.817C159.088 307.355 151.665 300.339 143.874 293.769C134.591 286.819 125.236 280.007 115.811 273.332C126.872 256.777 140.091 242.135 155.466 229.406Z" fill="#E97273"/>
<path fill-rule="evenodd" clip-rule="evenodd" d="M343.369 229.406C358.744 242.135 371.962 256.777 383.024 273.332C371.021 281.373 359.429 290.015 348.25 299.26C341.601 304.993 335.5 311.196 329.948 317.867C328.947 317.367 327.93 316.859 326.897 316.342C327.636 315.663 327.636 314.951 326.897 314.207C325.741 313.618 324.52 313.414 323.237 313.597C337.039 297.25 353.003 283.422 371.128 272.112C371.535 271.502 371.535 270.891 371.128 270.281C363.928 260.548 356.302 251.193 348.25 242.218C346.66 238.063 344.829 233.996 342.759 230.016C342.835 229.646 343.038 229.443 343.369 229.406Z" fill="#E97174"/>
<path fill-rule="evenodd" clip-rule="evenodd" d="M377.534 318.478C374.687 320.715 371.84 322.952 368.993 325.189C361.742 330.503 354.93 336.4 348.555 342.881C347.768 344.279 346.751 345.5 345.505 346.542C345.826 347.595 345.724 348.612 345.2 349.592C340.458 346.173 335.984 342.411 331.778 338.305C338.214 326.883 346.552 317.02 356.791 308.717C363.909 311.667 370.823 314.921 377.534 318.478Z" fill="#AB2427"/>
<path fill-rule="evenodd" clip-rule="evenodd" d="M323.237 313.596C324.521 313.414 325.741 313.617 326.898 314.206C327.636 314.95 327.636 315.662 326.898 316.341C327.93 316.858 328.947 317.366 329.948 317.866C328.576 320.462 326.949 322.902 325.067 325.187C324.03 324.903 323.114 324.903 322.322 325.187C321.103 323.738 319.781 322.518 318.356 321.527C319.517 318.594 321.144 315.951 323.237 313.596Z" fill="#EA7B7B"/>
<path fill-rule="evenodd" clip-rule="evenodd" d="M153.026 349.592C153.149 348.073 152.844 346.65 152.111 345.321C145.314 337.808 137.891 331.097 129.843 325.189C126.996 322.952 124.149 320.715 121.302 318.478C128.101 315.12 135.016 311.866 142.044 308.717C152.284 317.02 160.622 326.883 167.058 338.305C162.835 342.63 158.157 346.392 153.026 349.592Z" fill="#AC2428"/>
<path fill-rule="evenodd" clip-rule="evenodd" d="M368.991 325.188C385.691 333.232 402.366 341.468 419.018 349.896C420.304 350.592 421.423 351.507 422.373 352.641C423.931 356.564 424.948 360.632 425.424 364.842C429.449 391.439 433.212 418.079 436.71 444.762C426.029 452.163 414.844 458.874 403.156 464.895C400.945 439.665 398.607 414.449 396.14 389.245C391.66 417.452 387.491 445.719 383.633 474.046C367.889 480.141 351.824 485.327 335.437 489.603C323.361 492.463 311.16 494.598 298.832 496.009C298.298 496.089 297.891 495.886 297.612 495.399C319.133 457.64 344.248 422.459 372.957 389.856C373.364 389.449 373.364 389.042 372.957 388.635C369.686 385.871 366.534 383.023 363.501 380.094C365.302 377.578 367.234 375.137 369.296 372.773C370.083 371.825 370.49 370.808 370.517 369.723C361.868 363.22 353.429 356.509 345.198 349.591C345.722 348.611 345.824 347.594 345.503 346.54C346.75 345.498 347.767 344.278 348.554 342.88C354.928 336.399 361.741 330.501 368.991 325.188Z" fill="#DE3133"/>
<path fill-rule="evenodd" clip-rule="evenodd" d="M121.3 318.479C124.147 320.716 126.994 322.952 129.841 325.189C112.272 333.669 94.7825 342.312 77.3745 351.118C76.8261 352.125 76.216 353.041 75.5443 353.863C75.0276 352.433 74.0106 351.518 72.4939 351.118C72.6971 350.914 72.9008 350.711 73.104 350.508C71.5922 348.352 69.762 346.623 67.6133 345.322C69.1714 343.053 71.2048 341.325 73.7141 340.136C89.5169 332.743 105.379 325.524 121.3 318.479Z" fill="#EC7475"/>
<path fill-rule="evenodd" clip-rule="evenodd" d="M129.842 325.188C137.89 331.095 145.313 337.806 152.109 345.32C152.843 346.648 153.148 348.072 153.025 349.591C144.904 356.384 136.668 363.095 128.316 369.723C128.124 370.582 128.327 371.395 128.927 372.163C130.989 374.527 132.921 376.968 134.722 379.484C134.802 379.935 134.7 380.342 134.417 380.704C131.687 383.49 128.839 386.133 125.876 388.635C125.469 389.042 125.469 389.449 125.876 389.856C154.292 422.695 179.407 457.876 201.221 495.399C200.064 495.988 198.844 496.191 197.56 496.009C169.268 492.393 142.018 484.97 115.81 473.741C115.505 473.436 115.2 473.131 114.895 472.826C111.941 450.222 108.79 427.649 105.439 405.107C104.777 399.763 103.862 394.476 102.693 389.245C101.914 396.971 101.202 404.699 100.558 412.428C98.918 428.874 97.3928 445.346 95.9823 461.845C95.8487 462.722 95.5437 463.535 95.0672 464.285C83.4434 458.683 72.462 452.176 62.123 444.762C65.8012 414.336 70.2755 384.035 75.5448 353.861C76.2164 353.039 76.8265 352.124 77.375 351.116C94.7829 342.31 112.272 333.668 129.842 325.188Z" fill="#DE3134"/>
<path fill-rule="evenodd" clip-rule="evenodd" d="M150.586 242.219C150.495 242.861 150.596 243.471 150.891 244.049C164.944 263.031 175.925 283.773 183.835 306.277C184.09 307.043 184.598 307.45 185.36 307.497C192.548 332.01 200.174 356.413 208.238 380.706C219.199 414.867 225.808 449.845 228.066 485.639C228.263 489.618 228.06 493.482 227.456 497.231C223.882 490.896 220.628 484.388 217.695 477.708C214.609 464.005 209.627 450.99 202.748 438.663C188.665 416.347 173.515 394.791 157.297 373.995C164.919 367.29 172.647 360.68 180.48 354.168C186.227 348.221 187.956 341.205 185.665 333.12C180.753 319.662 172.924 308.173 162.177 298.651C150.976 288.765 139.181 279.715 126.793 271.502C133.833 261.007 141.764 251.246 150.586 242.219Z" fill="#DD3034"/>
<path fill-rule="evenodd" clip-rule="evenodd" d="M348.251 242.219C356.303 251.194 363.929 260.549 371.129 270.282C371.536 270.892 371.536 271.502 371.129 272.112C353.004 283.423 337.04 297.251 323.238 313.598C321.145 315.953 319.518 318.596 318.357 321.529C312.539 329.749 311.014 338.697 313.781 348.372C315.867 351.68 318.409 354.629 321.407 357.218C328.222 362.714 334.933 368.306 341.54 373.995C325.19 394.49 310.04 415.843 296.089 438.053C289.227 450.354 284.244 463.368 281.142 477.098C277.902 484.392 274.343 491.509 270.466 498.451C271.212 461.029 277.11 424.425 288.158 388.637C296.276 363.167 304.309 337.747 312.256 312.378C321.179 287.415 333.177 264.028 348.251 242.219Z" fill="#DD3034"/>
<path fill-rule="evenodd" clip-rule="evenodd" d="M318.356 321.527C319.78 322.518 321.102 323.738 322.321 325.188C323.114 324.904 324.029 324.904 325.067 325.188C322.175 329.543 319.43 334.017 316.831 338.609C316.037 339.747 315.833 340.967 316.221 342.27C328.738 352.15 341.041 362.216 353.13 372.469C333.555 397.482 314.948 423.207 297.308 449.643C291.903 458.833 286.514 467.984 281.141 477.097C284.243 463.367 289.226 450.352 296.088 438.052C310.039 415.841 325.189 394.489 341.539 373.994C334.932 368.305 328.221 362.712 321.406 357.217C318.408 354.628 315.866 351.679 313.78 348.371C311.013 338.695 312.538 329.748 318.356 321.527Z" fill="#EA7274"/>
<path fill-rule="evenodd" clip-rule="evenodd" d="M67.6143 345.32C69.763 346.622 71.5932 348.351 73.105 350.506C72.9019 350.709 72.6981 350.913 72.4949 351.116C74.0116 351.516 75.0286 352.431 75.5453 353.861C70.2761 384.036 65.8018 414.336 62.1236 444.763C58.3247 442.695 54.7655 440.255 51.4473 437.442C54.663 409.076 58.7304 380.81 63.6488 352.641C64.5139 349.89 65.8359 347.449 67.6143 345.32Z" fill="#EA7678"/>
<path fill-rule="evenodd" clip-rule="evenodd" d="M105.438 405.108C104.97 404.643 104.665 404.033 104.523 403.278C104.116 404.091 103.71 404.091 103.303 403.278C102.906 404.336 103.007 405.353 103.608 406.328C102.985 406.849 102.476 407.459 102.083 408.158C101.88 407.955 101.676 407.752 101.473 407.548C101.361 409.296 101.056 410.923 100.558 412.429C101.202 404.7 101.914 396.972 102.693 389.246C103.862 394.476 104.777 399.764 105.438 405.108Z" fill="#1F0D08"/>
<path fill-rule="evenodd" clip-rule="evenodd" d="M377.534 318.479C394.546 325.967 411.425 333.796 428.17 341.966C433.354 346.318 436.099 351.91 436.406 358.744C440.368 384.337 444.13 409.961 447.693 435.613C447.65 436.389 447.447 437.1 447.083 437.748C443.608 440.093 440.151 442.432 436.711 444.764C433.213 418.081 429.451 391.441 425.425 364.844C424.949 360.634 423.933 356.566 422.374 352.643C421.424 351.509 420.306 350.594 419.019 349.897C402.368 341.47 385.692 333.234 368.993 325.189C371.84 322.952 374.687 320.716 377.534 318.479Z" fill="#EB7376"/>
<path fill-rule="evenodd" clip-rule="evenodd" d="M134.724 379.484C161.055 411.178 184.543 444.936 205.188 480.757C208.254 486.077 211 491.568 213.424 497.229C208.002 497.787 202.714 497.38 197.562 496.009C198.845 496.191 200.065 495.988 201.222 495.399C179.408 457.876 154.293 422.695 125.877 389.856C125.471 389.449 125.471 389.042 125.877 388.636C128.841 386.134 131.688 383.49 134.419 380.705C134.702 380.342 134.804 379.935 134.724 379.484Z" fill="#AD2528"/>
<path fill-rule="evenodd" clip-rule="evenodd" d="M363.501 380.096C366.534 383.025 369.686 385.872 372.957 388.637C373.364 389.044 373.364 389.45 372.957 389.857C344.249 422.46 319.134 457.641 297.613 495.4C297.891 495.887 298.298 496.09 298.833 496.01C294.443 496.617 289.969 497.227 285.411 497.84C287.609 492.223 290.151 486.733 293.037 481.368C313.682 445.547 337.17 411.789 363.501 380.096Z" fill="#AC2426"/>
<path opacity="0.044" fill-rule="evenodd" clip-rule="evenodd" d="M452.574 449.645C452.115 450.621 451.505 451.536 450.744 452.39C431.255 465.183 410.919 476.367 389.736 485.944C388.172 486.602 386.546 486.907 384.855 486.859C408.639 476.496 431.212 464.091 452.574 449.645Z" fill="#EBEBEA"/>
<path fill-rule="evenodd" clip-rule="evenodd" d="M228.064 485.639C228.769 489.8 228.87 494.071 228.369 498.45C227.932 498.118 227.627 497.711 227.454 497.23C228.058 493.481 228.261 489.618 228.064 485.639Z" fill="#6F1D1E"/>
<path opacity="0.065" fill-rule="evenodd" clip-rule="evenodd" d="M384.855 486.859C384.873 487.468 384.568 487.875 383.94 488.08C345.434 503.367 305.271 511.298 263.45 511.872C305.242 510.256 345.711 501.918 384.855 486.859Z" fill="#E0DFDF"/>
</g>
</svg>
