<svg width="100" height="100" viewBox="0 0 100 100" fill="none" xmlns="http://www.w3.org/2000/svg">
<mask id="mask0_1633_3877" style="mask-type:alpha" maskUnits="userSpaceOnUse" x="0" y="0" width="100" height="100">
<circle cx="50" cy="50" r="50" fill="#020618"/>
</mask>
<g mask="url(#mask0_1633_3877)">
<path d="M53.4359 3.59971C52.5266 4.07154 51.5349 4.2982 50.4919 4.39581C49.6411 4.5698 48.787 4.50879 47.9296 4.21279C46.2293 3.57831 44.5211 2.96823 42.805 2.38256C41.7039 2.2315 40.6464 2.37377 39.6326 2.80961C38.3895 3.62272 37.3931 4.68023 36.6432 5.98201C35.5563 7.92327 34.7224 9.9569 34.1419 12.0828C33.8555 13.3982 33.5708 14.6996 33.2878 15.9873C32.9906 17.851 32.7466 19.722 32.5557 21.6C28.9999 22.194 25.5428 23.1498 22.1843 24.4673C20.7897 24.9901 19.6306 25.8239 18.7069 26.9686C18.418 27.7394 18.4994 28.4715 18.9509 29.1649C19.9521 30.2455 21.152 31.0386 22.5504 31.5442C26.1555 32.8623 29.8566 33.8182 33.6538 34.4116C33.9001 36.0888 34.2052 37.7564 34.5689 39.4142C34.6503 39.6988 34.6503 39.9836 34.5689 40.2683C28.3722 44.0857 23.4306 49.1289 19.744 55.3982C20.4797 55.9281 21.2118 56.4568 21.9403 56.9844C22.5232 57.2967 23.0926 57.6424 23.6485 58.0215C24.3628 58.554 25.0543 59.103 25.7228 59.6687C26.2109 59.9505 25.9484 59.7997 26.2109 59.9737C21.7629 62.0147 17.3297 64.089 12.9112 66.1965C11.4638 67.1995 10.5487 68.5619 10.1658 70.284C9.32306 76.0611 8.46895 81.8366 7.60349 87.6102C7.50332 87.9828 7.52357 88.3489 7.6645 88.7083C17.601 96.1148 28.7451 100.548 41.0967 102.008H41.2188C42.9874 102.112 44.7363 102.234 46.4654 102.374H48.1736H52.0781H52.6882C61.0468 102.051 69.1405 100.383 76.9693 97.3714C81.7259 95.2989 86.2405 92.8178 90.513 89.9285C91.0648 89.498 91.6138 89.0506 92.1602 88.5863C91.4009 82.7281 90.5874 76.8714 89.7199 71.0161C89.4383 68.8859 88.4012 67.2387 86.6085 66.0745C82.242 64.0743 77.89 62.0407 73.5529 59.9737C75.6606 58.3735 77.8161 56.8483 80.0197 55.3982C76.2869 49.1598 71.3249 44.1369 65.1338 40.3293C65.0065 40.0397 65.0472 39.7753 65.2558 39.5362C65.5214 37.8003 65.8061 36.0718 66.1099 34.3505C70.1002 33.8105 73.9639 32.7938 77.7014 31.3002C78.8975 30.8144 79.9346 30.1027 80.8128 29.1649C81.2518 28.4672 81.3332 27.7351 81.0568 26.9686C80.2558 25.967 79.2593 25.2147 78.0674 24.7113C74.5151 23.2945 70.8546 22.2574 67.086 21.6C66.9742 19.3419 66.6894 17.1049 66.2319 14.8891V14.6451C65.912 13.5283 65.6273 12.3895 65.3778 11.2287C64.6712 8.92038 63.6341 6.76486 62.2664 4.76185C60.5254 2.53215 58.0647 1.96274 55.3726 2.80961C55.3726 2.80961 54.1202 3.41912 53.4359 3.59971Z" fill="#030202"/>
<path fill-rule="evenodd" clip-rule="evenodd" d="M52.0792 6.71489C53.9912 6.69451 55.9028 6.71489 57.8139 6.7759C58.0157 6.85008 58.2191 6.91109 58.424 6.95892C58.8714 7.32496 59.2781 7.73164 59.6442 8.17907C60.3584 9.61007 60.8669 11.1149 61.1694 12.6936C61.4667 14.022 61.6904 15.3642 61.8404 16.7201C61.8234 16.9068 61.742 17.0288 61.5964 17.0862C54.2832 16.3709 46.9622 16.2895 39.6336 16.8422C39.5116 16.8422 39.3896 16.8422 39.2676 16.8422C39.3291 16.0245 39.4308 15.2111 39.5726 14.4018C41.0201 13.5562 42.2402 12.458 43.2331 11.1074C43.821 10.3009 44.065 9.40606 43.9652 8.4231C43.7717 8.15833 43.6089 7.87354 43.4771 7.56899C42.6517 6.68268 41.7773 5.86932 40.8538 5.12869C41.2781 4.78985 41.7662 4.68821 42.318 4.82365C43.7103 5.32843 45.0932 5.85712 46.4665 6.40985C48.3083 7.00504 50.1792 7.10668 52.0792 6.71489Z" fill="#DC3034"/>
<path fill-rule="evenodd" clip-rule="evenodd" d="M59.6441 5.7377C59.2822 6.18098 58.8755 6.58765 58.4239 6.95785C58.219 6.91002 58.0156 6.84901 57.8138 6.77483C55.9027 6.71382 53.9911 6.69344 52.0791 6.71382C53.8055 6.17183 55.5137 5.54137 57.2038 4.82258C58.1905 4.68629 59.0038 4.99133 59.6441 5.7377Z" fill="#E57073"/>
<path fill-rule="evenodd" clip-rule="evenodd" d="M59.643 5.73828C60.0555 6.02868 60.3808 6.39472 60.6191 6.83642C60.4928 7.04445 60.4928 7.24785 60.6191 7.44649C60.3884 7.84292 60.063 8.08695 59.643 8.17859C59.277 7.73116 58.8703 7.32448 58.4229 6.95843C58.8744 6.58824 59.2811 6.18156 59.643 5.73828Z" fill="#E76869"/>
<path fill-rule="evenodd" clip-rule="evenodd" d="M40.8532 5.12891C41.7767 5.86954 42.6511 6.68289 43.4765 7.56921C43.6083 7.87376 43.771 8.15854 43.9646 8.42332C44.0644 9.40627 43.8203 10.3011 43.2325 11.1077C42.2396 12.4582 41.0195 13.5564 39.572 14.4021C39.4302 15.2113 39.3285 16.0247 39.267 16.8424C39.389 16.8424 39.511 16.8424 39.633 16.8424C38.3556 17.0631 37.0541 17.2257 35.7285 17.3304C36.1368 13.4988 37.2959 9.91959 39.206 6.59309C39.6496 5.97655 40.1987 5.48849 40.8532 5.12891Z" fill="#AA2426"/>
<path fill-rule="evenodd" clip-rule="evenodd" d="M60.6197 6.83594C61.9894 9.05064 62.9453 11.4503 63.487 14.0348C63.7094 15.0446 63.8924 16.0615 64.0361 17.0852C63.9955 17.2072 63.9547 17.3292 63.9141 17.4513C63.1271 17.3206 62.3543 17.1986 61.5958 17.0852C61.7414 17.0279 61.8228 16.9059 61.8398 16.7192C61.6898 15.3632 61.4661 14.021 61.1687 12.6927C60.8663 11.1139 60.3578 9.6091 59.6436 8.1781C60.0635 8.08647 60.3889 7.84244 60.6197 7.44601C60.4934 7.24737 60.4934 7.04397 60.6197 6.83594Z" fill="#E66E70"/>
<path fill-rule="evenodd" clip-rule="evenodd" d="M55.6172 9.64258C56.2024 11.0233 57.0971 12.1824 58.3015 13.12C58.8914 13.5168 59.5014 13.8829 60.1318 14.2181C57.7955 13.529 56.2907 12.0038 55.6172 9.64258Z" fill="#E8726F"/>
<path fill-rule="evenodd" clip-rule="evenodd" d="M55.4952 22.8209C56.4447 23.1317 57.3801 23.5181 58.3015 23.98C58.7801 24.3767 59.1664 24.8444 59.4607 25.3832C59.5517 25.7845 59.4094 26.0896 59.0336 26.2983C58.2454 26.7147 57.4319 27.0197 56.5933 27.2135C49.1069 27.3888 41.6234 27.3074 34.1425 26.9694C33.3509 26.8684 32.5375 26.8074 31.7021 26.7864C33.713 25.9638 35.7058 25.1097 37.6809 24.2241C38.9447 23.7554 40.2057 23.3284 41.4634 22.9429C46.1382 22.6711 50.8154 22.6303 55.4952 22.8209Z" fill="#DA2F33"/>
<path d="M65.0735 40.3917L65.2565 39.5376L64.8905 39.4766L64.5244 40.2087L65.0735 40.3917Z" fill="black"/>
<path fill-rule="evenodd" clip-rule="evenodd" d="M55.4951 22.8203C60.7262 23.0549 65.8916 23.7668 70.9911 24.9556C73.0233 25.4839 75.0163 26.1346 76.9698 26.9078C70.1771 26.8524 63.3849 26.9541 56.5933 27.2129C57.4319 27.0191 58.2453 26.7141 59.0336 26.2977C59.4094 26.089 59.5516 25.7839 59.4606 25.3826C59.1663 24.8438 58.78 24.3761 58.3015 23.9795C57.38 23.5175 56.4446 23.1311 55.4951 22.8203Z" fill="#E97373"/>
<path fill-rule="evenodd" clip-rule="evenodd" d="M41.4643 22.9434C40.2066 23.3288 38.9457 23.7559 37.6818 24.2245C35.7068 25.1101 33.7139 25.9642 31.7031 26.7868C32.5384 26.8078 33.3519 26.8688 34.1434 26.9699C30.3993 26.8453 26.6576 26.8249 22.918 26.9089C26.9167 25.2786 31.0652 24.1805 35.3635 23.6144C37.3891 23.3104 39.4226 23.0867 41.4643 22.9434Z" fill="#A72224"/>
<path fill-rule="evenodd" clip-rule="evenodd" d="M37.6812 29.531C37.0711 29.531 36.4611 29.531 35.851 29.531C35.851 29.9784 35.851 30.4257 35.851 30.8731C35.731 30.4097 35.6903 29.9217 35.729 29.4089C36.4032 29.3698 37.0541 29.4104 37.6812 29.531Z" fill="black"/>
<path fill-rule="evenodd" clip-rule="evenodd" d="M37.6818 29.5312C46.0192 29.8442 54.357 29.8442 62.695 29.5312C63.1016 29.5312 63.5084 29.5312 63.9151 29.5312C63.9151 29.8973 63.9151 30.2633 63.9151 30.6294C63.8824 31.5058 63.801 32.3599 63.6711 33.1917C63.6565 33.0592 63.5751 32.9778 63.4271 32.9477C62.1458 33.0367 60.885 33.1588 59.6446 33.3137C59.3599 33.3137 59.0751 33.3137 58.7905 33.3137C52.0395 33.6313 45.2879 33.6313 38.5359 33.3137C38.9228 39.2155 40.6107 44.7062 43.5995 49.7858C44.5896 51.1419 45.708 52.3823 46.955 53.5072C47.4861 53.941 48.0554 54.2867 48.6632 54.5444C46.8448 54.2046 45.2586 53.4115 43.9046 52.1651C41.6401 49.8578 39.9115 47.1937 38.7189 44.1731C37.0828 39.8886 36.1271 35.4555 35.8516 30.8734C35.8516 30.426 35.8516 29.9787 35.8516 29.5312C36.4616 29.5312 37.0717 29.5312 37.6818 29.5312Z" fill="black"/>
<path fill-rule="evenodd" clip-rule="evenodd" d="M62.6934 29.5306C63.1158 29.4107 63.5632 29.3701 64.0355 29.4085C64.0737 29.8407 64.033 30.2474 63.9135 30.6287C63.9135 30.2626 63.9135 29.8966 63.9135 29.5306C63.5068 29.5306 63.1 29.5306 62.6934 29.5306Z" fill="black"/>
<path fill-rule="evenodd" clip-rule="evenodd" d="M58.7901 33.3145C59.0748 33.3145 59.3596 33.3145 59.6442 33.3145C60.2137 33.3145 60.783 33.3145 61.3524 33.3145C60.9411 38.9045 59.3753 44.1511 56.6548 49.0544C55.7367 50.5459 54.6589 51.9085 53.4214 53.1419C53.5488 53.2852 53.6708 53.4276 53.7875 53.569C53.4075 53.7997 53.0007 53.9624 52.5673 54.057C52.5011 54.0497 52.4604 54.0091 52.4453 53.935C54.3826 50.9553 55.7857 47.7423 56.6548 44.2958C57.6554 40.742 58.2044 37.1223 58.3021 33.4365C58.4972 33.4692 58.6598 33.4284 58.7901 33.3145Z" fill="black"/>
<path fill-rule="evenodd" clip-rule="evenodd" d="M58.7897 33.3145C58.6594 33.4284 58.4968 33.4692 58.3017 33.4365C58.2041 37.1223 57.655 40.742 56.6545 44.2958C55.7853 47.7423 54.3822 50.9553 52.4449 53.935C52.4601 54.0091 52.5007 54.0497 52.5669 54.057C52.1592 54.2809 51.7117 54.4233 51.2248 54.4841C50.3716 54.5451 49.5175 54.5654 48.6624 54.5451C48.0547 54.2874 47.4854 53.9417 46.9542 53.508C45.7072 52.383 44.5888 51.1426 43.5988 49.7865C40.6099 44.7069 38.9221 39.2162 38.5352 33.3145C45.2871 33.6321 52.0387 33.6321 58.7897 33.3145Z" fill="black"/>
<path fill-rule="evenodd" clip-rule="evenodd" d="M63.6702 33.1913C63.1924 38.7358 61.5452 43.9012 58.7286 48.6872C57.9156 49.8842 57.0005 51.0026 55.9832 52.0426C55.2994 52.6255 54.5674 53.1338 53.7869 53.5678C53.6703 53.4264 53.5483 53.284 53.4209 53.1408C54.6584 51.9073 55.7361 50.5448 56.6543 49.0533C59.3748 44.15 60.9406 38.9033 61.3519 33.3133C60.7825 33.3133 60.2131 33.3133 59.6437 33.3133C60.8841 33.1584 62.1449 33.0363 63.4262 32.9473C63.5742 32.9774 63.6556 33.0588 63.6702 33.1913Z" fill="black"/>
<path fill-rule="evenodd" clip-rule="evenodd" d="M37.0707 61.4993C36.9182 61.4899 36.8165 61.4085 36.7657 61.2553C35.1836 56.7546 32.9873 52.6061 30.1768 48.8097C30.1179 48.6941 30.0976 48.5721 30.1158 48.4437C30.3929 47.572 30.7182 46.7179 31.0919 45.8814C32.4488 44.689 33.9129 43.6317 35.4845 42.709C36.1571 44.7864 37.0314 46.7794 38.1078 48.6877C38.1892 48.8504 38.1892 49.0131 38.1078 49.1758C36.6245 51.8373 36.055 54.6844 36.3996 57.7169C36.5654 58.9895 36.7891 60.2504 37.0707 61.4993Z" fill="#AB2426"/>
<path fill-rule="evenodd" clip-rule="evenodd" d="M68.673 45.8814C68.6068 45.8887 68.5661 45.9293 68.551 46.0034C68.965 46.7993 69.3311 47.6128 69.6492 48.4437C66.6344 52.8056 64.2347 57.483 62.4502 62.4755C63.2063 59.8032 63.5113 57.0781 63.3654 54.3004C63.0841 52.3783 62.4537 50.5888 61.4741 48.9318C62.6218 46.9526 63.5573 44.8783 64.2805 42.709C65.852 43.6317 67.3162 44.689 68.673 45.8814Z" fill="#A72326"/>
<path fill-rule="evenodd" clip-rule="evenodd" d="M31.0921 45.8809C30.7184 46.7174 30.3931 47.5715 30.116 48.4432C28.3516 50.2486 26.7653 52.2009 25.3574 54.2999C27.8351 55.9425 30.1941 57.7523 32.4343 59.7296C34.5836 61.634 36.1494 63.9319 37.1319 66.6234C37.5901 68.2404 37.2443 69.6436 36.0948 70.833C34.5282 72.1355 32.9826 73.4574 31.4582 74.7985C34.7018 78.9576 37.7319 83.2689 40.5483 87.7321C41.9242 90.1975 42.9207 92.8005 43.5377 95.541C39.2877 88.1191 34.4478 81.1032 29.0179 74.4934C31.6009 72.4182 34.1633 70.3237 36.7049 68.2096C35.7275 66.3351 34.5684 64.5862 33.2274 62.963C31.8167 61.4706 30.3321 60.0674 28.7738 58.7535C26.9171 57.3635 25.0463 56.0009 23.1611 54.666C25.3735 51.3551 28.0172 48.4267 31.0921 45.8809Z" fill="#E97273"/>
<path fill-rule="evenodd" clip-rule="evenodd" d="M68.673 45.8809C71.7479 48.4267 74.3916 51.3551 76.604 54.666C74.2032 56.2742 71.8849 58.0027 69.6491 59.8516C68.3193 60.9983 67.0991 62.2388 65.9887 63.5731C65.7885 63.473 65.5851 63.3714 65.3786 63.268C65.5263 63.1322 65.5263 62.9898 65.3786 62.841C65.1472 62.7231 64.9032 62.6825 64.6465 62.719C67.407 59.4497 70.5997 56.6841 74.2247 54.4219C74.3061 54.2999 74.3061 54.1779 74.2247 54.0559C72.7848 52.1092 71.2596 50.2383 69.6491 48.4432C69.331 47.6123 68.965 46.7988 68.551 46.0029C68.5661 45.9288 68.6067 45.8882 68.673 45.8809Z" fill="#E97174"/>
<path fill-rule="evenodd" clip-rule="evenodd" d="M75.5057 63.6964C74.9362 64.1438 74.3669 64.5911 73.7974 65.0386C72.3473 66.1013 70.9847 67.2808 69.7099 68.577C69.5525 68.8567 69.3491 69.1007 69.0998 69.3091C69.164 69.5198 69.1436 69.7232 69.0388 69.9192C68.0904 69.2354 67.1955 68.483 66.3545 67.6619C67.6416 65.3774 69.3092 63.4048 71.3571 61.7441C72.7806 62.3341 74.1634 62.9849 75.5057 63.6964Z" fill="#AB2427"/>
<path fill-rule="evenodd" clip-rule="evenodd" d="M64.647 62.72C64.9037 62.6835 65.1478 62.7241 65.3791 62.842C65.5269 62.9908 65.5269 63.1332 65.3791 63.269C65.5857 63.3724 65.7891 63.474 65.9892 63.5741C65.7148 64.0931 65.3895 64.5812 65.0131 65.0383C64.8055 64.9814 64.6225 64.9814 64.464 65.0383C64.2202 64.7484 63.9558 64.5043 63.6709 64.3062C63.9031 63.7196 64.2285 63.191 64.647 62.72Z" fill="#EA7B7B"/>
<path fill-rule="evenodd" clip-rule="evenodd" d="M30.6036 69.9192C30.6282 69.6155 30.5672 69.3307 30.4206 69.0651C29.0612 67.5623 27.5766 66.2201 25.967 65.0386C25.3976 64.5911 24.8282 64.1438 24.2588 63.6964C25.6187 63.0247 27.0016 62.374 28.4073 61.7441C30.4552 63.4048 32.1228 65.3774 33.41 67.6619C32.5654 68.5267 31.6299 69.2792 30.6036 69.9192Z" fill="#AC2428"/>
<path fill-rule="evenodd" clip-rule="evenodd" d="M73.7973 65.0371C77.1372 66.646 80.4723 68.2932 83.8026 69.9787C84.0599 70.1179 84.2836 70.301 84.4737 70.5278C84.7853 71.3125 84.9886 72.1259 85.0837 72.9681C85.8889 78.2875 86.6414 83.6154 87.341 88.9521C85.2048 90.4323 82.9679 91.7744 80.6302 92.9786C80.1881 87.9327 79.7204 82.8894 79.227 77.8487C78.331 83.49 77.4973 89.1434 76.7257 94.8088C73.5768 96.0279 70.3638 97.065 67.0864 97.9202C64.6713 98.4922 62.231 98.9193 59.7655 99.2014C59.6586 99.2174 59.5772 99.1767 59.5215 99.0794C63.8257 91.5276 68.8487 84.4913 74.5904 77.9707C74.6718 77.8893 74.6718 77.8081 74.5904 77.7267C73.9362 77.1737 73.3058 76.6043 72.6992 76.0185C73.0595 75.5152 73.4458 75.0271 73.8583 74.5543C74.0156 74.3646 74.097 74.1613 74.1023 73.9442C72.3726 72.6437 70.6848 71.3015 69.0387 69.9177C69.1435 69.7218 69.1639 69.5184 69.0997 69.3076C69.349 69.0992 69.5524 68.8552 69.7098 68.5756C70.9846 67.2794 72.3471 66.0999 73.7973 65.0371Z" fill="#DE3133"/>
<path fill-rule="evenodd" clip-rule="evenodd" d="M24.2588 63.6953C24.8283 64.1427 25.3976 64.5901 25.9671 65.0375C22.4531 66.7335 18.9553 68.462 15.4737 70.2231C15.364 70.4247 15.242 70.6077 15.1077 70.7722C15.0043 70.4862 14.8009 70.3032 14.4976 70.2231C14.5382 70.1825 14.579 70.1417 14.6196 70.1011C14.3173 69.67 13.9512 69.3242 13.5215 69.064C13.8331 68.6102 14.2398 68.2645 14.7416 68.0269C17.9022 66.5482 21.0746 65.1043 24.2588 63.6953Z" fill="#EC7475"/>
<path fill-rule="evenodd" clip-rule="evenodd" d="M25.9675 65.0371C27.5772 66.2187 29.0617 67.5609 30.4211 69.0636C30.5678 69.3292 30.6288 69.614 30.6041 69.9177C28.98 71.2765 27.3328 72.6186 25.6625 73.9442C25.6241 74.116 25.6647 74.2787 25.7845 74.4323C26.1971 74.9051 26.5834 75.3932 26.9437 75.8965C26.9597 75.9866 26.9393 76.068 26.8827 76.1405C26.3365 76.6976 25.7671 77.2263 25.1744 77.7267C25.0931 77.8081 25.0931 77.8893 25.1744 77.9707C30.8576 84.5386 35.8806 91.5748 40.2434 99.0794C40.012 99.1972 39.768 99.2379 39.5113 99.2014C33.8528 98.4782 28.4027 96.9936 23.1612 94.7478C23.1002 94.6868 23.0392 94.6258 22.9782 94.5648C22.3875 90.044 21.7572 85.5294 21.0869 81.0211C20.9547 79.9523 20.7716 78.8947 20.5379 77.8487C20.382 79.3939 20.2397 80.9395 20.1108 82.4853C19.7828 85.7743 19.4778 89.0687 19.1957 92.3685C19.169 92.544 19.108 92.7066 19.0127 92.8566C16.6879 91.7362 14.4916 90.4348 12.4238 88.9521C13.1595 82.8668 14.0543 76.8067 15.1082 70.7718C15.2425 70.6073 15.3645 70.4243 15.4742 70.2228C18.9558 68.4616 22.4536 66.7331 25.9675 65.0371Z" fill="#DE3134"/>
<path fill-rule="evenodd" clip-rule="evenodd" d="M30.116 48.4434C30.0978 48.5717 30.1181 48.6937 30.177 48.8094C32.9875 52.6058 35.1838 56.7543 36.7659 61.255C36.8168 61.4082 36.9184 61.4896 37.0709 61.499C38.5084 66.4016 40.0336 71.2822 41.6465 76.1408C43.8386 82.9731 45.1604 89.9687 45.612 97.1274C45.6514 97.9232 45.6108 98.6959 45.49 99.4457C44.7752 98.1788 44.1244 96.8773 43.5377 95.5412C42.9207 92.8006 41.9242 90.1977 40.5484 87.7323C37.7319 83.2691 34.7019 78.9578 31.4582 74.7986C32.9827 73.4576 34.5282 72.1357 36.0948 70.8332C37.2443 69.6437 37.5901 68.2406 37.1319 66.6236C36.1494 63.9321 34.5836 61.6342 32.4343 59.7298C30.1941 57.7525 27.8351 55.9427 25.3574 54.3001C26.7654 52.2011 28.3516 50.2488 30.116 48.4434Z" fill="#DD3034"/>
<path fill-rule="evenodd" clip-rule="evenodd" d="M69.6498 48.4434C71.2602 50.2384 72.7854 52.1094 74.2253 54.0561C74.3067 54.1781 74.3067 54.3001 74.2253 54.4221C70.6004 56.6843 67.4076 59.4499 64.6471 62.7191C64.2286 63.1901 63.9032 63.7188 63.671 64.3053C62.5075 65.9494 62.2024 67.739 62.7559 69.674C63.173 70.3357 63.6814 70.9254 64.2811 71.4432C65.6441 72.5423 66.9863 73.6609 68.3076 74.7986C65.0377 78.8976 62.0077 83.1682 59.2174 87.6102C57.845 90.0703 56.8485 92.6733 56.228 95.4192C55.58 96.8779 54.8683 98.3013 54.0928 99.6897C54.242 92.2055 55.4215 84.8845 57.6312 77.727C59.2549 72.633 60.8615 67.549 62.4508 62.4751C64.2353 57.4826 66.635 52.8053 69.6498 48.4434Z" fill="#DD3034"/>
<path fill-rule="evenodd" clip-rule="evenodd" d="M63.6695 64.3047C63.9544 64.5028 64.2188 64.7469 64.4626 65.0368C64.6211 64.9799 64.8041 64.9799 65.0117 65.0368C64.4333 65.9077 63.8843 66.8026 63.3645 67.7211C63.2057 67.9487 63.165 68.1927 63.2425 68.4532C65.746 70.4292 68.2065 72.4425 70.6244 74.493C66.7094 79.4956 62.9879 84.6406 59.46 89.9279C58.3789 91.7658 57.3012 93.596 56.2266 95.4186C56.847 92.6726 57.8435 90.0697 59.2159 87.6096C62.0062 83.1675 65.0362 78.897 68.3061 74.798C66.9848 73.6602 65.6426 72.5417 64.2796 71.4426C63.6799 70.9247 63.1716 70.335 62.7544 69.6734C62.2009 67.7383 62.506 65.9487 63.6695 64.3047Z" fill="#EA7274"/>
<path fill-rule="evenodd" clip-rule="evenodd" d="M13.5225 69.0645C13.9522 69.3247 14.3183 69.6705 14.6206 70.1016C14.58 70.1422 14.5392 70.183 14.4986 70.2236C14.8019 70.3036 15.0053 70.4867 15.1087 70.7727C14.0548 76.8075 13.16 82.8677 12.4243 88.9529C11.6645 88.5394 10.9527 88.0514 10.2891 87.4888C10.9322 81.8157 11.7457 76.1623 12.7294 70.5286C12.9024 69.9783 13.1668 69.4903 13.5225 69.0645Z" fill="#EA7678"/>
<path fill-rule="evenodd" clip-rule="evenodd" d="M21.0865 81.022C20.9928 80.9289 20.9318 80.8069 20.9035 80.656C20.8221 80.8186 20.7408 80.8186 20.6594 80.656C20.58 80.8677 20.6002 81.0711 20.7204 81.266C20.5957 81.3702 20.4941 81.4923 20.4154 81.6321C20.3748 81.5915 20.334 81.5507 20.2934 81.5101C20.271 81.8596 20.21 82.1849 20.1104 82.4862C20.2392 80.9404 20.3816 79.3948 20.5374 77.8496C20.7712 78.8956 20.9542 79.9532 21.0865 81.022Z" fill="#1F0D08"/>
<path fill-rule="evenodd" clip-rule="evenodd" d="M75.5051 63.6953C78.9075 65.193 82.2833 66.7589 85.6324 68.3929C86.6691 69.2632 87.2182 70.3816 87.2796 71.7483C88.072 76.8671 88.8244 81.9917 89.5369 87.1222C89.5283 87.2774 89.4877 87.4197 89.4149 87.5493C88.72 88.0182 88.0285 88.486 87.3406 88.9525C86.641 83.6158 85.8885 78.2878 85.0833 72.9685C84.9881 72.1263 84.7849 71.3128 84.4732 70.5282C84.2831 70.3013 84.0595 70.1183 83.8021 69.9791C80.4719 68.2936 77.1368 66.6464 73.7969 65.0375C74.3663 64.5901 74.9356 64.1427 75.5051 63.6953Z" fill="#EB7376"/>
<path fill-rule="evenodd" clip-rule="evenodd" d="M26.9435 75.8965C32.2097 82.2352 36.9073 88.9868 41.0363 96.151C41.6497 97.2151 42.1988 98.3132 42.6835 99.4454C41.5992 99.5571 40.5417 99.4757 39.5111 99.2014C39.7679 99.2379 40.0119 99.1972 40.2432 99.0794C35.8804 91.5748 30.8574 84.5386 25.1743 77.9707C25.0929 77.8894 25.0929 77.8081 25.1743 77.7267C25.7669 77.2263 26.3364 76.6976 26.8825 76.1405C26.9392 76.068 26.9595 75.9867 26.9435 75.8965Z" fill="#AD2528"/>
<path fill-rule="evenodd" clip-rule="evenodd" d="M72.699 76.0195C73.3057 76.6053 73.936 77.1748 74.5903 77.7277C74.6717 77.8091 74.6717 77.8904 74.5903 77.9718C68.8486 84.4924 63.8256 91.5286 59.5214 99.0804C59.5771 99.1778 59.6585 99.2184 59.7654 99.2024C58.8875 99.3237 57.9926 99.4457 57.0811 99.5685C57.5206 98.4451 58.029 97.3469 58.6062 96.2741C62.7353 89.1098 67.4329 82.3582 72.699 76.0195Z" fill="#AC2426"/>
<path opacity="0.044" fill-rule="evenodd" clip-rule="evenodd" d="M90.5144 89.9297C90.4227 90.1249 90.3007 90.3079 90.1484 90.4788C86.2506 93.0373 82.1833 95.2742 77.9468 97.1896C77.6341 97.3212 77.3088 97.3823 76.9707 97.3726C81.7274 95.3001 86.2419 92.819 90.5144 89.9297Z" fill="#EBEBEA"/>
<path fill-rule="evenodd" clip-rule="evenodd" d="M45.6113 97.127C45.7522 97.9592 45.7725 98.8133 45.6723 99.6893C45.5848 99.6229 45.5238 99.5415 45.4893 99.4452C45.6101 98.6955 45.6507 97.9227 45.6113 97.127Z" fill="#6F1D1E"/>
<path opacity="0.065" fill-rule="evenodd" clip-rule="evenodd" d="M76.9705 97.3711C76.9742 97.4927 76.9132 97.5741 76.7875 97.6151C69.0864 100.673 61.0536 102.259 52.6895 102.374C61.048 102.05 69.1418 100.383 76.9705 97.3711Z" fill="#E0DFDF"/>
</g>
</svg>
